<svg width="60" height="60" viewBox="0 0 60 60" fill="none" xmlns="http://www.w3.org/2000/svg">
<path fill-rule="evenodd" clip-rule="evenodd" d="M29.9559 12.0258H43.4765C46.0142 12.0258 48.0176 14.0292 48.0176 16.5669V30.0874C48.0176 40.012 39.9936 48.036 30.069 48.036H29.9662C20.0416 48.036 12.0176 40.012 12.0176 30.0874C12.0073 20.1627 20.0313 12.1285 29.9559 12.0258Z" fill="#22A849"/>
<path fill-rule="evenodd" clip-rule="evenodd" d="M30.0081 19.9066C25.6622 19.9066 22.1279 23.4511 22.1279 27.797C22.1279 27.797 22.1279 27.797 22.1279 27.8997V33.16C22.1279 34.5778 23.3403 35.7901 24.7581 35.7901H26.9772V29.6155H23.9464V27.8997C24.0492 24.458 26.9772 21.8278 30.306 22.0333C33.5423 22.136 36.0594 24.7662 36.1622 27.8997V29.6155H33.1314V35.7901H35.1553V35.8929C35.1553 37.2079 34.0457 38.3175 32.7307 38.3175H30.306C30.1005 38.3175 29.9053 38.4203 29.9053 38.6258C29.9053 38.8312 30.1108 39.0264 30.306 39.0264H32.7307C34.4464 39.0264 35.8642 37.6086 35.8642 35.8929V35.6874C37.0766 35.3792 37.8882 34.3723 37.8882 33.16V27.8997C37.9909 23.4511 34.4567 19.9066 30.0081 19.9066Z" fill="white"/>
</svg>
