<svg width="60" height="60" viewBox="0 0 60 60" fill="none" xmlns="http://www.w3.org/2000/svg">
<path d="M30 27.85L40.2 19H30C26.4 19 22.8 19.1 19.4 19.35C18 19.45 16.9 20.5 16.8 21.9C16.6 24 16.5 26.65 16.5 29.25V30.7C16.5 33.35 16.6 35.95 16.8 38.05C16.95 39.4 18.05 40.5 19.4 40.55C26.4578 41.05 33.5422 41.05 40.6 40.55C41.95 40.5 43.1 39.4 43.2 38.05C43.35 36.05 43.45 33.6 43.5 31.1L50 25.5V31.1C50 33.75 49.9 36.4 49.7 38.55C49.5168 40.7685 48.5426 42.8474 46.9548 44.4077C45.367 45.9679 43.2714 46.9057 41.05 47.05C37.5 47.35 33.75 47.5 30 47.5C26.25 47.5 22.5 47.35 18.95 47.1C16.7286 46.9557 14.633 46.0179 13.0452 44.4577C11.4574 42.8974 10.4832 40.8185 10.3 38.6C10.1 36.35 10 33.55 10 30.75V29.3C10 26.5 10.1 23.7 10.3 21.4C10.4832 19.1815 11.4574 17.1026 13.0452 15.5423C14.633 13.9821 16.7286 13.0443 18.95 12.9C22.5 12.65 26.25 12.5 30 12.5H50V19L30 36.35L20.65 28.25L25.55 24L30 27.85Z" fill="#0FC006"/>
</svg>
