<svg width="60" height="60" viewBox="0 0 60 60" fill="none" xmlns="http://www.w3.org/2000/svg">
<path d="M39.5625 12H20.4375C15.7776 12 12 15.7776 12 20.4375V39.5625C12 44.2224 15.7776 48 20.4375 48H39.5625C44.2224 48 48 44.2224 48 39.5625V20.4375C48 15.7776 44.2224 12 39.5625 12Z" fill="#0073AA"/>
<path d="M17.938 30.0007C17.938 34.7756 20.7129 38.9021 24.7368 40.8576L18.9824 25.0913C18.2928 26.6361 17.9369 28.309 17.938 30.0007ZM38.145 29.3919C38.145 27.9011 37.6095 26.8687 37.1502 26.065C36.5386 25.0714 35.9654 24.2299 35.9654 23.2362C35.9654 22.1272 36.8065 21.095 37.9911 21.095C38.0447 21.095 38.0953 21.1016 38.1475 21.1046C36.0013 19.1384 33.1419 17.9379 30.0012 17.9379C25.787 17.9379 22.0791 20.1001 19.9222 23.3753C20.2051 23.3837 20.4719 23.3898 20.6985 23.3898C21.9603 23.3898 23.9134 23.2365 23.9134 23.2365C24.5637 23.1982 24.6405 24.1534 23.9908 24.2303C23.9908 24.2303 23.3373 24.3072 22.6101 24.3453L27.003 37.4119L29.6429 29.4943L27.7635 24.3449C27.1139 24.3068 26.4985 24.2299 26.4985 24.2299C25.8484 24.1917 25.9246 23.1978 26.5748 23.2362C26.5748 23.2362 28.5668 23.3892 29.7522 23.3892C31.0139 23.3892 32.9671 23.2362 32.9671 23.2362C33.618 23.1978 33.6943 24.1529 33.0445 24.2299C33.0445 24.2299 32.3896 24.3068 31.6638 24.3449L36.0233 37.3125L37.2265 33.2917C37.7481 31.6231 38.145 30.4247 38.145 29.3919Z" fill="white"/>
<path d="M30.2112 31.0561L26.5918 41.5734C27.6984 41.8993 28.846 42.0648 29.9996 42.0649C31.3639 42.0653 32.7185 41.8341 34.0054 41.381C33.9719 41.3283 33.9432 41.2727 33.9196 41.2148L30.2112 31.0561ZM40.5845 24.2133C40.6393 24.6244 40.6665 25.0388 40.6658 25.4536C40.6658 26.6777 40.4372 28.0539 39.7485 29.7746L36.0637 40.4282C39.6501 38.3368 42.0624 34.4515 42.0624 30.0011C42.0625 27.9037 41.5269 25.9314 40.5845 24.2133Z" fill="white"/>
<path d="M29.9997 15.9375C22.2459 15.9375 15.9375 22.2455 15.9375 29.9992C15.9375 37.7538 22.2459 44.0615 29.9997 44.0615C37.7531 44.0615 44.0625 37.7538 44.0625 29.9992C44.0622 22.2455 37.7531 15.9375 29.9997 15.9375ZM29.9997 43.417C22.6014 43.417 16.5823 37.3977 16.5823 29.9992C16.5823 22.601 22.6013 16.5823 29.9997 16.5823C37.3976 16.5823 43.4163 22.601 43.4163 29.9992C43.4163 37.3977 37.3976 43.417 29.9997 43.417Z" fill="white"/>
</svg>
