<svg width="60" height="60" viewBox="0 0 60 60" fill="none" xmlns="http://www.w3.org/2000/svg">
<path d="M34.5002 30.0056C34.5001 31.3045 34.2657 32.5926 33.8083 33.8083C32.5927 34.2657 31.3045 34.5 30.0057 34.5002H29.9933C28.6945 34.5 27.4063 34.2657 26.1907 33.8083C25.7333 32.5926 25.4989 31.3045 25.4988 30.0056V29.9933C25.4988 28.6522 25.7452 27.3742 26.1907 26.1906C27.4063 25.7332 28.6945 25.4989 29.9933 25.4987H30.0057C31.3467 25.4987 32.6304 25.7451 33.8083 26.1906C34.2657 27.4063 34.5001 28.6944 34.5002 29.9933V30.0056ZM47.7543 26.9995H37.2419L44.666 19.5698C44.0847 18.7517 43.4359 17.9836 42.7265 17.2736C42.0167 16.5623 41.2486 15.9116 40.4303 15.3284L33.0005 22.7525V12.2458C32.0106 12.0853 31.0096 12.003 30.0068 11.9995H29.9888C28.9684 11.9995 27.9728 12.0928 27.0007 12.2458V22.7582L19.5766 15.3341C18.7527 15.9107 17.982 16.5598 17.2737 17.2736C16.5603 17.9815 15.9095 18.7498 15.3285 19.5698L22.7526 26.9995H12.2459C12.2459 26.9995 11.9995 28.974 11.9995 29.9933V30.0056C11.9995 31.026 12.0929 32.0273 12.2459 32.9994H22.7582L15.3341 40.4235C16.4952 42.0693 17.9275 43.5058 19.5699 44.6716L26.9996 37.2475V47.7542C27.9716 47.9117 28.9673 48.0006 29.9877 48.0006H30.0113C31.0317 48.0006 32.0274 47.9117 32.9994 47.7542V37.2475L40.4235 44.6716C41.2504 44.1091 42.0177 43.4532 42.7197 42.7377H42.7253C43.4422 42.033 44.0933 41.2644 44.6705 40.4415L37.2464 33.0174H47.7531C47.9106 32.0498 47.9995 31.0598 47.9995 30.0461V30C47.9995 28.9796 47.9106 27.984 47.7531 27.0175L47.7543 26.9995Z" fill="white"/>
</svg>
