<svg width="60" height="60" viewBox="0 0 60 60" fill="none" xmlns="http://www.w3.org/2000/svg">
<g clip-path="url(#clip0_809_2052)">
<path d="M28.4775 45.1562H10.0013L28.4775 22.8512V45.1562ZM50.0013 45.1562H31.525C31.5649 42.7323 32.5558 40.4211 34.284 38.7211C36.0123 37.021 38.3395 36.0682 40.7638 36.0682C43.188 36.0682 45.5152 37.021 47.2435 38.7211C48.9717 40.4211 49.9614 42.7323 50.0013 45.1562ZM31.525 37.1488V14.8438H50.0013L31.525 37.1488ZM28.4775 14.8438C28.4376 17.2677 27.4467 19.5789 25.7185 21.2789C23.9902 22.979 21.663 23.9318 19.2387 23.9318C16.8145 23.9318 14.4873 22.979 12.759 21.2789C11.0308 19.5789 10.0399 17.2677 10 14.8438H28.4775Z" fill="white"/>
</g>
<defs>
<clipPath id="clip0_809_2052">
<rect width="40" height="40" fill="white" transform="translate(10 10)"/>
</clipPath>
</defs>
</svg>
