<svg width="16" height="15" viewBox="0 0 16 15" fill="none" xmlns="http://www.w3.org/2000/svg">
<path d="M9.99998 13.3334C11 10.2684 12.105 9.16254 15 8.33337C12.105 7.50421 11 6.39837 9.99998 3.33337C8.99998 6.39837 7.89498 7.50421 4.99998 8.33337C7.89498 9.16254 8.99998 10.2684 9.99998 13.3334ZM3.33331 5.83337C3.83331 4.30004 4.38581 3.74754 5.83331 3.33337C4.38581 2.91921 3.83331 2.36671 3.33331 0.833374C2.83331 2.36671 2.28081 2.91921 0.833313 3.33337C2.28081 3.74754 2.83331 4.30004 3.33331 5.83337ZM4.58331 14.1667C4.83331 13.4 5.10915 13.1242 5.83331 12.9167C5.10915 12.7092 4.83331 12.4334 4.58331 11.6667C4.33331 12.4334 4.05748 12.7092 3.33331 12.9167C4.05748 13.1242 4.33331 13.4 4.58331 14.1667Z" stroke="white" stroke-width="1.66667" stroke-linejoin="round"/>
</svg>
