<svg width="17" height="19" viewBox="0 0 17 19" fill="none" xmlns="http://www.w3.org/2000/svg">
<path d="M10.1667 1.16626H6.83339C6.61238 1.16626 6.40042 1.25406 6.24414 1.41034C6.08786 1.56662 6.00006 1.77858 6.00006 1.99959V5.33293C6.00006 5.55394 6.08786 5.7659 6.24414 5.92218C6.40042 6.07846 6.61238 6.16626 6.83339 6.16626H10.1667C10.3877 6.16626 10.5997 6.07846 10.756 5.92218C10.9123 5.7659 11.0001 5.55394 11.0001 5.33293V1.99959C11.0001 1.77858 10.9123 1.56662 10.756 1.41034C10.5997 1.25406 10.3877 1.16626 10.1667 1.16626ZM5.16673 12.8329H1.83339C1.61238 12.8329 1.40042 12.9207 1.24414 13.077C1.08786 13.2333 1.00006 13.4452 1.00006 13.6663V16.9996C1.00006 17.2206 1.08786 17.4326 1.24414 17.5888C1.40042 17.7451 1.61238 17.8329 1.83339 17.8329H5.16673C5.38774 17.8329 5.5997 17.7451 5.75598 17.5888C5.91226 17.4326 6.00006 17.2206 6.00006 16.9996V13.6663C6.00006 13.4452 5.91226 13.2333 5.75598 13.077C5.5997 12.9207 5.38774 12.8329 5.16673 12.8329ZM15.1667 12.8329H11.8334C11.6124 12.8329 11.4004 12.9207 11.2441 13.077C11.0879 13.2333 11.0001 13.4452 11.0001 13.6663V16.9996C11.0001 17.2206 11.0879 17.4326 11.2441 17.5888C11.4004 17.7451 11.6124 17.8329 11.8334 17.8329H15.1667C15.3877 17.8329 15.5997 17.7451 15.756 17.5888C15.9123 17.4326 16.0001 17.2206 16.0001 16.9996V13.6663C16.0001 13.4452 15.9123 13.2333 15.756 13.077C15.5997 12.9207 15.3877 12.8329 15.1667 12.8329Z" stroke="white" stroke-width="1.66667" stroke-linejoin="round"/>
</svg>
