<svg width="60" height="60" viewBox="0 0 60 60" fill="none" xmlns="http://www.w3.org/2000/svg">
<path d="M30.4274 13.4284C27.2399 13.4284 24.0524 13.5134 21.0774 13.7259C19.1892 13.8486 17.4079 14.6457 16.0583 15.9719C14.7087 17.2981 13.8805 19.0651 13.7249 20.9509C13.3849 25.4984 13.3424 30.0034 13.6399 34.5509C13.8028 36.5719 14.7274 38.4555 16.2266 39.8205C17.7257 41.1856 19.6875 41.9301 21.7149 41.9034H26.1774V36.3784H21.7149C20.3974 36.4209 19.2499 35.4859 19.1224 34.1684C18.8674 29.9184 18.9099 25.6684 19.2074 21.4184C19.2924 20.2284 20.2274 19.3359 21.4174 19.2509C24.3074 19.0384 27.3674 18.9534 30.4274 18.9534C33.4874 18.9534 36.5474 19.0809 39.4374 19.2084C40.5849 19.2934 41.5624 20.1859 41.6474 21.3759C41.9874 25.6259 41.9874 29.8759 41.7324 34.1259C41.5624 35.4434 40.4574 36.4209 39.1399 36.3784H34.6774L26.1774 41.9034V47.4284L34.6774 41.9034H39.1399C43.3474 41.9459 46.8749 38.7159 47.2149 34.5509C47.5124 30.0459 47.4699 25.4984 47.1724 20.9934C47.0167 19.1076 46.1886 17.3406 44.8389 16.0144C43.4893 14.6882 41.7081 13.8911 39.8199 13.7684C36.8024 13.5134 33.6149 13.4284 30.4274 13.4284ZM23.2874 25.8384C22.7774 25.8384 22.3524 26.2634 22.3524 26.7734V30.0884C22.3524 30.5559 22.6074 30.9809 23.0324 31.1934C25.3274 32.2984 27.8774 32.8934 30.4274 32.9784C32.9774 32.8934 35.5274 32.2984 37.8224 31.1934C38.2474 30.9809 38.5024 30.5559 38.5024 30.0884V26.7734C38.5024 26.6459 38.4599 26.5609 38.3749 26.4759C38.3299 26.3595 38.2618 26.2535 38.1747 26.1643C38.0875 26.075 37.9832 26.0044 37.8679 25.9567C37.7527 25.909 37.6289 25.8853 37.5042 25.8868C37.3795 25.8884 37.2564 25.9153 37.1424 25.9659C35.0174 26.9009 32.7224 27.4109 30.3849 27.4534C28.0474 27.4109 25.7524 26.8584 23.6274 25.9234C23.5212 25.8718 23.4054 25.8428 23.2874 25.8384Z" fill="#044582"/>
</svg>
