<svg width="60" height="60" viewBox="0 0 60 60" fill="none" xmlns="http://www.w3.org/2000/svg">
<path d="M30 12C19.8601 12 12 19.4275 12 29.46C12 34.7077 14.1506 39.2422 17.6531 42.3743C17.947 42.6374 18.1245 43.0061 18.1366 43.4006L18.2346 46.6026C18.266 47.6239 19.3208 48.2884 20.2554 47.8759L23.8281 46.2985C24.1309 46.165 24.4705 46.1401 24.7896 46.228C26.4314 46.6794 28.1786 46.9199 30 46.9199C40.1399 46.9199 48 39.4923 48 29.4599C48 19.4274 40.1399 12 30 12Z" fill="url(#paint0_radial_809_2066)"/>
<path d="M19.1922 34.5662L24.4797 26.1775C25.3207 24.8429 27.1218 24.5106 28.3838 25.4571L32.5892 28.6113C32.777 28.7521 33.0056 28.828 33.2403 28.8273C33.4751 28.8266 33.7032 28.7494 33.8902 28.6075L39.5698 24.297C40.3278 23.7217 41.3175 24.6289 40.8101 25.434L35.5226 33.8228C34.6815 35.1572 32.8803 35.4895 31.6184 34.5431L27.4129 31.3889C27.2251 31.2481 26.9966 31.1723 26.7619 31.173C26.5272 31.1737 26.2991 31.2508 26.1121 31.3927L20.4323 35.7031C19.6743 36.2783 18.6847 35.3713 19.1922 34.5662Z" fill="white"/>
<defs>
<radialGradient id="paint0_radial_809_2066" cx="0" cy="0" r="1" gradientUnits="userSpaceOnUse" gradientTransform="translate(704.892 3592.74) scale(3922.56 3922.56)">
<stop stop-color="#0099FF"/>
<stop offset="0.60975" stop-color="#A033FF"/>
<stop offset="0.93482" stop-color="#FF5280"/>
<stop offset="1" stop-color="#FF7061"/>
</radialGradient>
</defs>
</svg>
