<svg width="60" height="60" viewBox="0 0 60 60" fill="none" xmlns="http://www.w3.org/2000/svg">
<path d="M46.7866 34.1225C46.4466 38.2875 42.9191 41.5175 38.7116 41.475H34.2491L25.7491 47V41.475L34.2491 35.95H38.7116C40.0291 35.9925 41.1341 35.015 41.3041 33.6975C41.5591 29.4475 41.5591 25.1975 41.2191 20.9475C41.1341 19.7575 40.1566 18.865 39.0091 18.78C36.1191 18.6525 33.0591 18.525 29.9991 18.525C26.9391 18.525 23.8791 18.61 20.9891 18.8225C19.7991 18.9075 18.8641 19.8 18.7791 20.99C18.4816 25.24 18.4391 29.49 18.6941 33.74C18.8216 35.0575 19.9691 35.9925 21.2866 35.95H25.7491V41.475H21.2866C19.2593 41.5017 17.2975 40.7572 15.7983 39.3921C14.2992 38.0271 13.3746 36.1435 13.2116 34.1225C12.9141 29.575 12.9566 25.07 13.2966 20.5225C13.4523 18.6367 14.2805 16.8697 15.6301 15.5435C16.9797 14.2173 18.7609 13.4202 20.6491 13.2975C23.6241 13.085 26.8116 13 29.9991 13C33.1866 13 36.3741 13.085 39.3916 13.34C41.2798 13.4627 43.0611 14.2598 44.4107 15.586C45.7603 16.9122 46.5885 18.6792 46.7441 20.565C47.0416 25.07 47.0841 29.6175 46.7866 34.1225Z" fill="#AA0000"/>
</svg>
