<svg width="60" height="60" viewBox="0 0 60 60" fill="none" xmlns="http://www.w3.org/2000/svg">
<path d="M41.2047 20.1238C41.1812 19.9529 41.0315 19.8584 40.9078 19.848C39.9956 19.7794 39.0833 19.7114 38.171 19.644C38.171 19.644 36.3561 17.8421 36.1569 17.6427C35.9575 17.4434 35.5683 17.504 35.4172 17.5485C35.3949 17.555 35.0206 17.6705 34.4015 17.8621C33.7952 16.1175 32.7252 14.5143 30.8429 14.5143C30.7909 14.5143 30.7374 14.5164 30.6839 14.5195C30.1486 13.8115 29.4854 13.5039 28.9127 13.5039C24.5277 13.5039 22.4328 18.9855 21.776 21.7711C20.0721 22.299 18.8617 22.6744 18.7071 22.7229C17.756 23.0213 17.7259 23.0512 17.6011 23.9474C17.5071 24.6259 15.0186 43.8707 15.0186 43.8707L34.4096 47.5039L44.9163 45.231C44.9163 45.231 41.2279 20.2947 41.2047 20.1238ZM33.3298 18.1936L31.689 18.7014C31.6896 18.5858 31.6901 18.472 31.6901 18.3476C31.6901 17.2634 31.5396 16.3904 31.2982 15.6983C32.2681 15.82 32.914 16.9236 33.3298 18.1936ZM30.095 15.9133C30.3647 16.589 30.54 17.5587 30.54 18.8672C30.54 18.9341 30.5394 18.9953 30.5388 19.0572C29.4718 19.3878 28.3122 19.7466 27.1501 20.1066C27.8026 17.5884 29.0257 16.3721 30.095 15.9133ZM28.7922 14.68C28.9815 14.68 29.1721 14.7443 29.3546 14.8699C27.9493 15.5312 26.443 17.1966 25.8069 20.5226L23.1283 21.3522C23.8734 18.8153 25.6427 14.68 28.7922 14.68Z" fill="#95BF46"/>
<path d="M40.9084 19.8478C39.9962 19.7793 39.0839 19.7113 38.1716 19.6438C38.1716 19.6438 36.3567 17.842 36.1575 17.6425C36.0829 17.5683 35.9824 17.5303 35.8773 17.5139L34.4111 47.5035L44.9169 45.2308C44.9169 45.2308 41.2285 20.2946 41.2053 20.1237C41.1818 19.9528 41.0321 19.8582 40.9084 19.8478Z" fill="#5E8E3E"/>
<path d="M30.2383 24.5077L28.9428 28.3614C28.9428 28.3614 27.8078 27.7556 26.4164 27.7556C24.3766 27.7556 24.274 29.0357 24.274 29.3582C24.274 31.1183 28.8619 31.7927 28.8619 35.9153C28.8619 39.1588 26.8047 41.2474 24.0309 41.2474C20.7022 41.2474 19 39.1758 19 39.1758L19.8913 36.2311C19.8913 36.2311 21.641 37.7333 23.1175 37.7333C24.0822 37.7333 24.4747 36.9737 24.4747 36.4187C24.4747 34.1228 20.7107 34.0204 20.7107 30.2478C20.7107 27.0727 22.9897 24 27.5901 24C29.3626 24 30.2383 24.5077 30.2383 24.5077Z" fill="white"/>
</svg>
