<svg width="60" height="60" viewBox="0 0 60 60" fill="none" xmlns="http://www.w3.org/2000/svg">
<path d="M19.5629 34.7485C19.5629 36.8306 17.8648 38.5312 15.7824 38.5312C13.7 38.5312 12 36.8306 12 34.7485C12 32.6664 13.7006 30.9658 15.7827 30.9658H19.5631L19.5629 34.7485ZM21.4686 34.7485C21.4686 32.6664 23.1692 30.9658 25.2513 30.9658C27.3334 30.9658 29.034 32.6662 29.034 34.7485V44.2174C29.034 46.2995 27.3336 48.0001 25.2513 48.0001C23.1692 48.0001 21.4686 46.2995 21.4686 44.2174V34.7485Z" fill="#DE1C59"/>
<path d="M25.2513 19.5629C23.1692 19.5629 21.4686 17.8648 21.4686 15.7824C21.4686 13.7 23.1692 12 25.2513 12C27.3334 12 29.034 13.7006 29.034 15.7827V19.5631L25.2513 19.5629ZM25.2513 21.4686C27.3334 21.4686 29.034 23.1692 29.034 25.2513C29.034 27.3334 27.3336 29.034 25.2513 29.034H15.7824C13.7003 29.034 12 27.3336 12 25.2513C12 23.1692 13.7006 21.4686 15.7827 21.4686H25.2513Z" fill="#35C5F0"/>
<path d="M40.4369 25.2513C40.4369 23.1692 42.135 21.4686 44.2174 21.4686C46.2998 21.4686 48.0001 23.1692 48.0001 25.2513C48.0001 27.3334 46.2995 29.034 44.2174 29.034H40.4369V25.2513ZM38.5312 25.2513C38.5312 27.3334 36.8306 29.034 34.7485 29.034C32.6664 29.034 30.9658 27.3336 30.9658 25.2513V15.7824C30.9658 13.7003 32.6662 12 34.7485 12C36.8306 12 38.5312 13.7006 38.5312 15.7827V25.2513Z" fill="#2EB57D"/>
<path d="M34.7485 40.4369C36.8306 40.4369 38.5312 42.135 38.5312 44.2174C38.5312 46.2998 36.8306 48.0001 34.7485 48.0001C32.6664 48.0001 30.9658 46.2995 30.9658 44.2174V40.4369H34.7485ZM34.7485 38.5312C32.6664 38.5312 30.9658 36.8306 30.9658 34.7485C30.9658 32.6664 32.6662 30.9658 34.7485 30.9658H44.2174C46.2995 30.9658 48.0001 32.6662 48.0001 34.7485C48.0001 36.8306 46.2995 38.5312 44.2174 38.5312H34.7485Z" fill="#EBB02E"/>
</svg>
