<svg width="19" height="19" viewBox="0 0 19 19" fill="none" xmlns="http://www.w3.org/2000/svg">
<path d="M5.75015 3.24996C5.30682 3.24983 4.87142 3.3676 4.4886 3.59119C4.10577 3.81478 3.78929 4.13615 3.5716 4.52235C3.3539 4.90856 3.24282 5.34571 3.24974 5.78899C3.25666 6.23227 3.38134 6.66574 3.61098 7.04496C3.0406 7.15517 2.52638 7.46052 2.15661 7.90857C1.78684 8.35663 1.58459 8.91944 1.58459 9.50038C1.58459 10.0813 1.78684 10.6441 2.15661 11.0922C2.52638 11.5402 3.0406 11.8456 3.61098 11.9558M5.75015 3.24996C5.75015 2.69742 5.96965 2.16752 6.36035 1.77682C6.75105 1.38612 7.28095 1.16663 7.83348 1.16663C8.38602 1.16663 8.91592 1.38612 9.30662 1.77682C9.69733 2.16752 9.91682 2.69742 9.91682 3.24996V4.49996M5.75015 3.24996C5.75015 3.93163 6.07765 4.53663 6.58348 4.91663M3.61098 11.9558C3.38155 12.335 3.25705 12.7684 3.25024 13.2115C3.24342 13.6547 3.35455 14.0917 3.57222 14.4778C3.78989 14.8638 4.10628 15.1851 4.48899 15.4087C4.87169 15.6322 5.30694 15.75 5.75015 15.75C5.75015 16.3025 5.96965 16.8324 6.36035 17.2231C6.75105 17.6138 7.28095 17.8333 7.83348 17.8333C8.38602 17.8333 8.91592 17.6138 9.30662 17.2231C9.69733 16.8324 9.91682 16.3025 9.91682 15.75V14.5M3.61098 11.9558C3.91019 11.461 4.37167 11.0844 4.91682 10.8916M12.0002 12V13.6666M14.5002 12V13.6666M12.0002 5.33329V6.99996M14.5002 5.33329V6.99996M10.7502 8.24996H9.08349M10.7502 10.75H9.08349M17.4168 8.24996H15.7502M17.4168 10.75H15.7502M14.0835 6.99996H12.4168C11.631 6.99996 11.2385 6.99996 10.9943 7.24413C10.7502 7.48829 10.7502 7.88079 10.7502 8.66663V10.3333C10.7502 11.1191 10.7502 11.5116 10.9943 11.7558C11.2385 12 11.631 12 12.4168 12H14.0835C14.8693 12 15.2618 12 15.506 11.7558C15.7502 11.5116 15.7502 11.1191 15.7502 10.3333V8.66663C15.7502 7.88079 15.7502 7.48829 15.506 7.24413C15.2618 6.99996 14.8693 6.99996 14.0835 6.99996Z" stroke="white" stroke-width="1.25" stroke-linecap="round" stroke-linejoin="round"/>
</svg>
