<svg width="15" height="14" viewBox="0 0 15 14" fill="none" xmlns="http://www.w3.org/2000/svg">
<path d="M11.8333 0.833374C12.4963 0.833374 13.1322 1.09677 13.6011 1.56561C14.0699 2.03445 14.3333 2.67033 14.3333 3.33337V4.16671H7.66663C6.78257 4.16671 5.93472 4.5179 5.3096 5.14302C4.68448 5.76814 4.33329 6.61599 4.33329 7.50004V10.8334C4.33329 11.7034 4.66663 12.4967 5.21329 13.09L4.33329 13.75C3.64663 14.265 2.66663 13.775 2.66663 12.9167V11.6667C2.00358 11.6667 1.3677 11.4033 0.898859 10.9345C0.430018 10.4656 0.166626 9.82975 0.166626 9.16671V3.33337C0.166626 2.67033 0.430018 2.03445 0.898859 1.56561C1.3677 1.09677 2.00358 0.833374 2.66663 0.833374H11.8333Z" fill="white"/>
</svg>
